<?xml version="1.0" encoding="UTF-8"?>
<svg id="Layer_1" xmlns="http://www.w3.org/2000/svg" version="1.1" viewBox="0 0 1314.65 334.1">
  <!-- Generator: Adobe Illustrator 29.8.1, SVG Export Plug-In . SVG Version: 2.1.1 Build 2)  -->
  <defs>
    <style>
      .st0, .st1, .st2 {
        fill: #fff;
      }

      .st1 {
        opacity: .25;
      }

      .st2 {
        opacity: .67;
      }
    </style>
  </defs>
  <path class="st0" d="M107.51,111.44c15.92,0,29.52,4.6,40.76,13.81,16.87,13.81,25.3,35.68,25.3,65.61,0,27.63-8.43,48.35-25.3,62.16-13.13,10.76-27.19,16.12-42.16,16.12-21.57,0-37.95-7.66-49.19-23.02v63.31h-28.11V111.44h28.11v25.32c13.11-16.87,29.98-25.32,50.6-25.32ZM73.78,143.67c-11.24,9.21-16.87,24.95-16.87,47.19s6.54,37.61,19.68,48.35c7.49,6.15,15.92,9.21,25.3,9.21s17.79-3.06,25.3-9.21c10.3-8.44,15.46-24.93,15.46-49.5s-5.16-41.04-15.46-49.5c-7.51-6.13-15.46-9.21-23.89-9.21-9.38,0-19.21,4.23-29.52,12.66Z"/>
  <path class="st0" d="M214.67,269.14h-28.11V111.44h28.11v157.7Z"/>
  <path class="st0" d="M315.7,188.56l57.62,80.58h-33.73l-40.76-59.86-40.76,59.86h-33.73l59.03-80.58-54.81-77.12h33.73l36.54,57.55,36.54-57.55h33.73l-53.41,77.12Z"/>
  <path class="st0" d="M473.13,253.6c-12.19,9.98-27.65,14.96-46.38,14.96-20.62,0-37.03-4.98-49.19-14.96-17.81-14.57-26.7-35.68-26.7-63.31s7.95-49.1,23.89-62.16c14.05-11.51,30.92-17.27,50.6-17.27,15.92,0,30.44,4.6,43.57,13.81,16.87,11.51,24.82,33.38,23.89,65.61h-111.03c0,25.32,5.62,41.44,16.87,48.35,6.54,5.38,15.92,8.06,28.11,8.06,10.3,0,18.73-2.68,25.3-8.06,5.62-4.6,8.89-12.66,9.84-24.17h32.33c-2.81,16.89-9.84,29.93-21.08,39.14ZM460.48,171.87c.92-15.34-3.29-26.48-12.65-33.38-8.43-6.13-16.87-8.81-25.3-8.06-9.38.77-18.27,4.6-26.7,11.51-7.51,6.15-12.19,16.12-14.05,29.93h78.71Z"/>
  <path class="st0" d="M532.81,269.14h-28.11V44.67h28.11v224.46Z"/>
  <path class="st0" d="M641.67,139.06c-5.62-4.6-12.65-6.91-21.08-6.91-10.32,0-19.68,3.45-28.11,10.36-11.24,9.21-16.87,26.48-16.87,51.8,0,20.72,5.14,35.31,15.46,43.74,8.43,6.91,17.79,10.36,28.11,10.36,9.36,0,17.79-3.06,25.3-9.21,9.36-7.66,13.57-19.95,12.65-36.84h32.33c.92,21.49-6.11,38.38-21.08,50.65-13.13,10.76-29.52,16.12-49.19,16.12s-37.03-6.13-52-18.42c-15.94-13.04-23.89-31.83-23.89-56.4,0-28.38,8.89-49.88,26.7-64.46,14.98-12.27,31.84-18.42,50.6-18.42s33.73,4.6,44.98,13.81c12.17,9.98,18.73,23.42,19.68,40.29h-30.92c-1.89-12.27-6.11-21.1-12.65-26.48Z"/>
  <path class="st0" d="M775.92,112.16c19.68,0,37,6.15,52,18.42,14.98,12.28,22.49,32.63,22.49,61.01s-7.51,47.59-22.49,59.86c-15,12.28-32.33,18.42-52,18.42s-38.43-6.13-53.41-18.42c-15-12.27-22.49-32.23-22.49-59.86s7.49-48.72,22.49-61.01c14.98-12.27,32.79-18.42,53.41-18.42ZM746.4,143.24c-10.32,8.45-15.46,24.57-15.46,48.35s5.14,38.76,15.46,47.19c8.43,6.91,18.27,10.36,29.52,10.36,10.3,0,19.68-3.45,28.11-10.36,10.3-8.44,15.46-24.17,15.46-47.19s-5.16-39.89-15.46-48.35c-8.43-6.91-17.81-10.36-28.11-10.36-11.24,0-21.08,3.45-29.52,10.36Z"/>
  <path class="st0" d="M911.48,269.86c-15.94,0-28.11-3.45-36.54-10.36-9.38-7.66-14.05-17.27-14.05-28.78v-118.56h28.11v112.81c0,9.21,2.33,15.74,7.03,19.57,4.68,3.85,12.65,5.76,23.89,5.76,13.11,0,24.35-3.83,33.73-11.51,10.3-8.44,15.46-19.17,15.46-32.23v-94.39h28.11v157.7h-28.11v-23.02c-15,15.36-34.21,23.02-57.62,23.02Z"/>
  <path class="st0" d="M1108.89,139.79c-5.62-4.6-13.13-6.91-22.49-6.91-10.32,0-20.62,4.23-30.92,12.66-13.13,10.76-19.68,24.57-19.68,41.44v82.88h-28.11V112.16h28.11v29.93c4.68-5.36,10.3-10.74,16.87-16.12,11.24-9.21,25.3-13.81,42.16-13.81,14.98,0,27.17,3.85,36.54,11.51,9.36,7.68,14.05,18.04,14.05,31.08v115.11h-28.11v-112.81c0-6.91-2.81-12.66-8.43-17.27Z"/>
  <path class="st0" d="M1192.98,130.58h-44.98v-18.42h44.98v-50.65h28.11v50.65h63.25v18.42h-63.25v104.75c0,8.45,7.49,12.66,22.49,12.66,15.92,0,32.33-3.06,49.19-9.21v24.17c-23.43,4.6-41.24,6.91-53.41,6.91-30.92,0-46.38-9.96-46.38-29.93v-109.35Z"/>
  <rect class="st1" x="158.46" y="81.51" width="28.11" height="29.93"/>
  <rect class="st0" x="214.67" y="21.65" width="28.11" height="29.93"/>
  <rect class="st2" x="186.56" y="51.58" width="28.11" height="29.93"/>
</svg>